<?xml version="1.0" standalone="no"?>
<!DOCTYPE svg PUBLIC "-//W3C//DTD SVG 20010904//EN"
 "http://www.w3.org/TR/2001/REC-SVG-20010904/DTD/svg10.dtd">
<svg version="1.0" xmlns="http://www.w3.org/2000/svg"
 width="16.000000pt" height="16.000000pt" viewBox="0 0 16.000000 16.000000"
 preserveAspectRatio="xMidYMid meet">
 <metadata>
Created by Asen Georgiev.
</metadata><defs><style>.cls-1,.cls-2{fill:#231f20;}.cls-2{stroke:#231f20;}.cls-2,.cls-3{stroke-linejoin:round;}.cls-3{fill:#fff;stroke:#fff;}</style></defs><title>Asset 34</title><g id="Layer_2" data-name="Layer 2"><g id="Layer_1-2" data-name="Layer 1"><rect class="cls-1" width="145.06" height="145.06" rx="10.06" ry="10.06"/><path class="cls-2" d="M7.35,99.76"/><path class="cls-3" d="M128.79,122.35h-6.51l-6-11.67L68.78,27.59h0l2.14-3.71a2.34,2.34,0,0,1,4,0l55.55,95.48A2,2,0,0,1,128.79,122.35Z"/><path class="cls-3" d="M16.26,122.35a2,2,0,0,1-1.72-3L58.05,44l5-8.66,5,8.66-2.5,4.34-.27.47-2.23,3.86L47.82,79l-5,8.66L29.55,110.39a2,2,0,0,0,1.69,3H94.81a2,2,0,0,0,1.75-3L86.87,93.39a2.07,2.07,0,0,0-1.79-1h-31a2,2,0,0,1-1.69-2.93l2.94-5.1a2,2,0,0,1,1.69-1h34l5.08,8.8,12.24,21.39,5.09,8.81Z"/></g></g></svg>