<svg xmlns="http://www.w3.org/2000/svg" viewBox="0 0 116.47 99.94"><defs><style>.cls-1{fill:#231f20;stroke:#231f20;stroke-linejoin:round;}</style></defs><title>Asset 21</title><g id="Layer_2" data-name="Layer 2"><g id="Layer_1-2" data-name="Layer 1"><path class="cls-1" d="M57.9,1.73"/><path class="cls-1" d="M116,99.41"/><polygon class="cls-1" points="115.97 99.44 105.97 99.44 100.97 90.77 53.47 7.68 53.47 7.68 53.47 7.68 57.61 0.5 115.97 99.44"/><polygon class="cls-1" points="0.5 99.44 45.74 21.06 50.74 12.4 55.74 21.06 53.24 25.4 52.97 25.87 50.74 29.73 35.51 56.1 30.51 64.76 15.51 90.44 85.97 90.44 70.96 64.44 35.41 64.44 40.61 55.44 75.76 55.44 80.84 64.24 96.08 90.63 101.17 99.44 0.5 99.44"/><line class="cls-1" x1="55.74" y1="21.06" x2="50.74" y2="12.4"/><path class="cls-1" d="M66.38,12.4"/><path class="cls-1" d="M50.74,12.4"/><path class="cls-1" d="M50.74,12.4"/><path class="cls-1" d="M50.74,12.4"/><path class="cls-1" d="M50.74,12.4"/></g></g></svg>