<svg xmlns="http://www.w3.org/2000/svg" viewBox="0 0 113.52 97.63"><defs><style>.cls-1{fill:#fff;stroke:#fff;stroke-linejoin:round;}</style></defs><title>Asset 26</title><g id="Layer_2" data-name="Layer 2"><g id="Layer_1-2" data-name="Layer 1"><path class="cls-1" d="M111,97.13h-6.51l-5-8.67L52,5.38h0l2.14-3.71a2.34,2.34,0,0,1,4,0l54.55,92.48A2,2,0,0,1,111,97.13Z"/><path class="cls-1" d="M2.49,97.13a2,2,0,0,1-1.72-3L44.29,18.76l5-8.66,5,8.66-2.5,4.34-.27.47-2.23,3.86L34.06,53.8l-5,8.66L15.78,85.18a2,2,0,0,0,1.69,3H81a2,2,0,0,0,1.75-3L73.11,68.18a2.07,2.07,0,0,0-1.79-1h-36a2,2,0,0,1-1.69-2.93l2.94-5.1a2,2,0,0,1,1.69-1h39l5.08,8.8L94.63,88.33l5.09,8.81Z"/><path class="cls-1" d="M49.29,10.1"/><path class="cls-1" d="M49.29,10.1"/><path class="cls-1" d="M49.29,10.1"/><path class="cls-1" d="M49.29,10.1"/></g></g></svg>